<svg xmlns="http://www.w3.org/2000/svg" viewBox="0 0 280.027 280.027"><path d="M43.754 0h192.519c24.17 0 43.754 19.593 43.754 43.754v192.519c0 24.17-19.584 43.754-43.754 43.754H43.754C19.584 280.027 0 260.443 0 236.273V43.754C0 19.593 19.593 0 43.754 0z" fill="#51bba8"/><path d="M140.014 43.754c53.161 0 96.259 43.107 96.259 96.259 0 53.161-43.098 96.259-96.259 96.259s-96.259-43.098-96.259-96.259c-.001-53.152 43.097-96.259 96.259-96.259z" fill="#475f6c"/><path d="M140.014 87.509c29 0 52.505 23.514 52.505 52.505s-23.505 52.505-52.505 52.505c-28.992 0-52.505-23.514-52.505-52.505s23.513-52.505 52.505-52.505z" fill="#2b414d"/><path d="M166.266 96.259c9.661 0 17.502 7.841 17.502 17.502 0 9.67-7.841 17.502-17.502 17.502s-17.502-7.832-17.502-17.502 7.841-17.502 17.502-17.502z" fill="#95a0a6"/><path d="M140.014 43.754c-53.161 0-96.259 43.107-96.259 96.259 0 53.161 43.098 96.259 96.259 96.259s96.259-43.098 96.259-96.259c0-53.152-43.089-96.259-96.259-96.259zm0 179.393c-45.837 0-83.133-37.296-83.133-83.133s37.296-83.133 83.133-83.133 83.133 37.296 83.133 83.133-37.288 83.133-83.133 83.133z" fill="#ebebeb"/><path d="M140.014 236.273c-53.161 0-96.259-43.098-96.259-96.259 0-24.354 9.118-46.528 24.03-63.479-20.057 17.642-32.781 43.422-32.781 72.23 0 53.161 43.098 96.259 96.259 96.259 28.808 0 54.588-12.724 72.23-32.781-16.942 14.912-39.117 24.03-63.479 24.03z" fill="#459e8f"/></svg>