<svg xmlns="http://www.w3.org/2000/svg" viewBox="0 0 340 340"><path d="M79.999 194.999c0-28.275 13.044-53.5 33.437-70H0v139.999h113.435c-20.393-16.499-33.436-41.724-33.436-69.999z" fill="#dedde0"/><path d="M260 194.999c0 28.275-13.044 53.5-33.437 70H340v-140L226.564 125C246.957 141.499 260 166.725 260 194.999z" fill="#cdcdd0"/><path d="M113.436 265H0v40h170v-20c-21.43 0-41.107-7.496-56.564-20z" fill="#78b9eb"/><path d="M170 285v20h170v-40H226.563c-15.456 12.504-35.133 20-56.563 20zm47.5-219.999L210 35h-40v20h20v29.999h-20v20c21.43 0 41.107 7.495 56.563 20H340V65.001H217.5z" fill="#5a8bb0"/><path d="M170 104.999v-20h-20V55h20V35h-40l-7.5 30H80v19.999H40V65.001H0V125h113.436c15.457-12.505 35.134-20.001 56.564-20.001z" fill="#78b9eb"/><path fill="#565659" d="M150 84.999h40V55h-40zM40 65.001h40V85H40z"/><path d="M170 254.999c-33.137 0-60-26.863-60-59.999s26.862-59.999 60-59.999V105c-21.43 0-41.107 7.495-56.564 20-20.393 16.5-33.437 41.725-33.437 70 0 28.274 13.043 53.499 33.436 69.999l.001.001c15.457 12.505 35.133 20 56.564 20v-30.001z" fill="#818085"/><path d="M170 135.001c33.136 0 59.999 26.863 59.999 59.999S203.136 254.999 170 254.999V285c21.43 0 41.107-7.495 56.563-20C246.956 248.5 260 223.275 260 195c0-28.274-13.043-53.5-33.436-69.999l-.001-.001c-15.456-12.505-35.133-20-56.563-20v30.001z" fill="#565659"/><circle cx="170" cy="194.999" r="59.999" fill="#fff"/></svg>